<svg id="レイヤー_1" data-name="レイヤー 1" xmlns="http://www.w3.org/2000/svg" viewBox="0 0 91 85"><defs><style>.cls-1{fill:#d82118;}.cls-2{fill:#fff;}.cls-3{fill:#e2c319;}</style></defs><title>アートボード 1</title><ellipse class="cls-1" cx="42.41" cy="42.5" rx="42.41" ry="42.5"/><path class="cls-2" d="M60.41,56.39H56.27a1.68,1.68,0,0,0-1.68,1.68v4.56h0a2.24,2.24,0,0,1-2.23,2.24H32.46a2.24,2.24,0,0,1-2.24-2.24V22.37a2.24,2.24,0,0,1,2.24-2.24h19.9a2.24,2.24,0,0,1,2.23,2.24v4.56a1.68,1.68,0,0,0,1.68,1.68h4.14a1.68,1.68,0,0,0,1.68-1.68V22.58h0a10,10,0,0,0-9.94-10H32.66a9.94,9.94,0,0,0-9.93,10V62.42a9.94,9.94,0,0,0,9.93,10H52.15a10,10,0,0,0,9.94-10V58.07A1.68,1.68,0,0,0,60.41,56.39Z"/><path class="cls-3" d="M48.43,45.39a1.38,1.38,0,0,0,2,0L85.16,10.56a1.39,1.39,0,0,1,2,0L90.59,14a1.39,1.39,0,0,1,0,2l-37,37a5.94,5.94,0,0,1-8.43,0L34,41.85a1.39,1.39,0,0,1,0-2l3.45-3.46a1.41,1.41,0,0,1,2,0Z"/></svg>